<mxfile host="app.diagrams.net" modified="2024-03-01T03:38:47.265Z" agent="Mozilla/5.0 (Windows NT 10.0; Win64; x64) AppleWebKit/537.36 (KHTML, like Gecko) Chrome/122.0.0.0 Safari/537.36" version="23.1.7" etag="Dzp3i2_95EojCVN-20xF" type="device">
  <diagram id="joLM4vcRRTgnA-m1k8ei" name="PÃ¡gina-1">
    <mxGraphModel dx="3520" dy="2860" grid="1" gridSize="10" guides="1" tooltips="1" connect="1" arrows="1" fold="1" page="0" pageScale="1" pageWidth="827" pageHeight="1169" background="none" math="0" shadow="0">
      <root>
        <mxCell id="0" />
        <mxCell id="1" parent="0" />
        <mxCell id="Q45VHOt7pSrsP22c0dTn-2" value="&lt;h1&gt;&lt;font style=&quot;font-size: 20px;&quot;&gt;view&lt;/font&gt;&lt;/h1&gt;" style="shape=folder;fontStyle=1;spacingTop=-10;tabWidth=40;tabHeight=14;tabPosition=left;html=1;whiteSpace=wrap;align=left;verticalAlign=top;horizontal=1;labelPosition=center;verticalLabelPosition=middle;" vertex="1" parent="1">
          <mxGeometry x="220" y="-246" width="570" height="356" as="geometry" />
        </mxCell>
        <mxCell id="node5" value="&lt;p style=&quot;margin:0px;margin-top:4px;text-align:center;&quot;&gt;&lt;b&gt;InstVista&lt;/b&gt;&lt;/p&gt;&lt;hr size=&quot;1&quot;/&gt;&lt;p style=&quot;margin:0 0 0 4px;line-height:1.6;&quot;&gt;+ InstVista(): &lt;/p&gt;" style="verticalAlign=top;align=left;overflow=fill;fontSize=14;fontFamily=Helvetica;html=1;rounded=0;shadow=0;comic=0;labelBackgroundColor=none;strokeWidth=1;" parent="1" vertex="1">
          <mxGeometry x="608.5" y="-150" width="151" height="67" as="geometry" />
        </mxCell>
        <mxCell id="node11" value="&lt;p style=&quot;margin:0px;margin-top:4px;text-align:center;&quot;&gt;&lt;b&gt;SCVista&lt;/b&gt;&lt;/p&gt;&lt;hr size=&quot;1&quot;/&gt;&lt;p style=&quot;margin:0 0 0 4px;line-height:1.6;&quot;&gt;+ SCVista(): &lt;/p&gt;" style="verticalAlign=top;align=left;overflow=fill;fontSize=14;fontFamily=Helvetica;html=1;rounded=0;shadow=0;comic=0;labelBackgroundColor=none;strokeWidth=1;" parent="1" vertex="1">
          <mxGeometry x="252.5" y="-150" width="133" height="67" as="geometry" />
        </mxCell>
        <mxCell id="node12" value="&lt;p style=&quot;margin:0px;margin-top:4px;text-align:center;&quot;&gt;&lt;b&gt;MantVista&lt;/b&gt;&lt;/p&gt;&lt;hr size=&quot;1&quot;/&gt;&lt;p style=&quot;margin:0 0 0 4px;line-height:1.6;&quot;&gt;+ MantVista(): &lt;/p&gt;" style="verticalAlign=top;align=left;overflow=fill;fontSize=14;fontFamily=Helvetica;html=1;rounded=0;shadow=0;comic=0;labelBackgroundColor=none;strokeWidth=1;" parent="1" vertex="1">
          <mxGeometry x="422.5" y="-150" width="151" height="67" as="geometry" />
        </mxCell>
        <mxCell id="Q45VHOt7pSrsP22c0dTn-4" value="&lt;h1&gt;&lt;font style=&quot;font-size: 20px;&quot;&gt;controller&lt;/font&gt;&lt;/h1&gt;" style="shape=folder;fontStyle=1;spacingTop=-10;tabWidth=40;tabHeight=14;tabPosition=left;html=1;whiteSpace=wrap;align=left;verticalAlign=top;horizontal=1;labelPosition=center;verticalLabelPosition=middle;" vertex="1" parent="1">
          <mxGeometry x="1020" y="-250" width="549" height="364" as="geometry" />
        </mxCell>
        <mxCell id="node0" value="&lt;p style=&quot;margin:0px;margin-top:4px;text-align:center;&quot;&gt;&lt;b&gt;AplMain&lt;/b&gt;&lt;/p&gt;&lt;hr size=&quot;1&quot;/&gt;&lt;p style=&quot;margin:0 0 0 4px;line-height:1.6;&quot;&gt;+ AplMain(): &lt;/p&gt;" style="verticalAlign=top;align=left;overflow=fill;fontSize=14;fontFamily=Helvetica;html=1;rounded=0;shadow=0;comic=0;labelBackgroundColor=none;strokeWidth=1;" parent="1" vertex="1">
          <mxGeometry x="1070" y="-180" width="133" height="67" as="geometry" />
        </mxCell>
        <mxCell id="node6" value="&lt;p style=&quot;margin:0px;margin-top:4px;text-align:center;&quot;&gt;&lt;b&gt;InstController&lt;/b&gt;&lt;/p&gt;&lt;hr size=&quot;1&quot;/&gt;&lt;p style=&quot;margin:0 0 0 4px;line-height:1.6;&quot;&gt;+ InstController(): &lt;/p&gt;" style="verticalAlign=top;align=left;overflow=fill;fontSize=14;fontFamily=Helvetica;html=1;rounded=0;shadow=0;comic=0;labelBackgroundColor=none;strokeWidth=1;" parent="1" vertex="1">
          <mxGeometry x="1340" y="-150" width="206" height="67" as="geometry" />
        </mxCell>
        <mxCell id="node4" value="&lt;p style=&quot;margin:0px;margin-top:4px;text-align:center;&quot;&gt;&lt;b&gt;MantController&lt;/b&gt;&lt;/p&gt;&lt;hr size=&quot;1&quot;/&gt;&lt;p style=&quot;margin:0 0 0 4px;line-height:1.6;&quot;&gt;+ MantController(): &lt;/p&gt;" style="verticalAlign=top;align=left;overflow=fill;fontSize=14;fontFamily=Helvetica;html=1;rounded=0;shadow=0;comic=0;labelBackgroundColor=none;strokeWidth=1;" parent="1" vertex="1">
          <mxGeometry x="1340" y="-60" width="206" height="67" as="geometry" />
        </mxCell>
        <mxCell id="node9" value="&lt;p style=&quot;margin:0px;margin-top:4px;text-align:center;&quot;&gt;&lt;b&gt;SCcontroller&lt;/b&gt;&lt;/p&gt;&lt;hr size=&quot;1&quot;/&gt;&lt;p style=&quot;margin:0 0 0 4px;line-height:1.6;&quot;&gt;+ SCcontroller(): &lt;/p&gt;" style="verticalAlign=top;align=left;overflow=fill;fontSize=14;fontFamily=Helvetica;html=1;rounded=0;shadow=0;comic=0;labelBackgroundColor=none;strokeWidth=1;" parent="1" vertex="1">
          <mxGeometry x="1351" y="30" width="184" height="67" as="geometry" />
        </mxCell>
        <mxCell id="Q45VHOt7pSrsP22c0dTn-6" value="&lt;h1&gt;&lt;font style=&quot;font-size: 20px;&quot;&gt;model&lt;/font&gt;&lt;/h1&gt;" style="shape=folder;fontStyle=1;spacingTop=-10;tabWidth=40;tabHeight=14;tabPosition=left;html=1;whiteSpace=wrap;align=left;verticalAlign=top;horizontal=1;labelPosition=center;verticalLabelPosition=middle;" vertex="1" parent="1">
          <mxGeometry x="40" y="400" width="1940" height="604" as="geometry" />
        </mxCell>
        <mxCell id="node3" value="&lt;p style=&quot;margin:0px;margin-top:4px;text-align:center;&quot;&gt;&lt;b&gt;InstCapacitacion&lt;/b&gt;&lt;/p&gt;&lt;hr size=&quot;1&quot;/&gt;&lt;p style=&quot;margin:0 0 0 4px;line-height:1.6;&quot;&gt;+ InstCapacitacion(): &lt;/p&gt;" style="verticalAlign=top;align=left;overflow=fill;fontSize=14;fontFamily=Helvetica;html=1;rounded=0;shadow=0;comic=0;labelBackgroundColor=none;strokeWidth=1;" parent="1" vertex="1">
          <mxGeometry x="350" y="520" width="228" height="67" as="geometry" />
        </mxCell>
        <mxCell id="node8" value="&lt;p style=&quot;margin:0px;margin-top:4px;text-align:center;&quot;&gt;&lt;b&gt;InstTecnologia&lt;/b&gt;&lt;/p&gt;&lt;hr size=&quot;1&quot;/&gt;&lt;p style=&quot;margin:0 0 0 4px;line-height:1.6;&quot;&gt;+ InstTecnologia(): &lt;/p&gt;" style="verticalAlign=top;align=left;overflow=fill;fontSize=14;fontFamily=Helvetica;html=1;rounded=0;shadow=0;comic=0;labelBackgroundColor=none;strokeWidth=1;" parent="1" vertex="1">
          <mxGeometry x="120" y="520" width="206" height="67" as="geometry" />
        </mxCell>
        <mxCell id="node2" value="&lt;p style=&quot;margin:0px;margin-top:4px;text-align:center;&quot;&gt;&lt;b&gt;MantReparaciones&lt;/b&gt;&lt;/p&gt;&lt;hr size=&quot;1&quot;/&gt;&lt;p style=&quot;margin:0 0 0 4px;line-height:1.6;&quot;&gt;+ MantReparaciones(): &lt;/p&gt;" style="verticalAlign=top;align=left;overflow=fill;fontSize=14;fontFamily=Helvetica;html=1;rounded=0;shadow=0;comic=0;labelBackgroundColor=none;strokeWidth=1;" parent="1" vertex="1">
          <mxGeometry x="1482" y="520" width="228" height="67" as="geometry" />
        </mxCell>
        <mxCell id="node1" value="&lt;p style=&quot;margin:0px;margin-top:4px;text-align:center;&quot;&gt;&lt;b&gt;MantPruebas&lt;/b&gt;&lt;/p&gt;&lt;hr size=&quot;1&quot;/&gt;&lt;p style=&quot;margin:0 0 0 4px;line-height:1.6;&quot;&gt;+ MantPruebas(): &lt;/p&gt;" style="verticalAlign=top;align=left;overflow=fill;fontSize=14;fontFamily=Helvetica;html=1;rounded=0;shadow=0;comic=0;labelBackgroundColor=none;strokeWidth=1;" parent="1" vertex="1">
          <mxGeometry x="1730" y="520" width="173" height="67" as="geometry" />
        </mxCell>
        <mxCell id="node13" value="&lt;p style=&quot;margin:0px;margin-top:4px;text-align:center;&quot;&gt;&lt;b&gt;SCEspecializados&lt;/b&gt;&lt;/p&gt;&lt;hr size=&quot;1&quot;/&gt;&lt;p style=&quot;margin:0 0 0 4px;line-height:1.6;&quot;&gt;+ SCEspecializados(): &lt;/p&gt;" style="verticalAlign=top;align=left;overflow=fill;fontSize=14;fontFamily=Helvetica;html=1;rounded=0;shadow=0;comic=0;labelBackgroundColor=none;strokeWidth=1;" parent="1" vertex="1">
          <mxGeometry x="1100" y="520" width="228" height="67" as="geometry" />
        </mxCell>
        <mxCell id="node7" value="&lt;p style=&quot;margin:0px;margin-top:4px;text-align:center;&quot;&gt;&lt;b&gt;SCGarantias&lt;/b&gt;&lt;/p&gt;&lt;hr size=&quot;1&quot;/&gt;&lt;p style=&quot;margin:0 0 0 4px;line-height:1.6;&quot;&gt;+ SCGarantias(): &lt;/p&gt;" style="verticalAlign=top;align=left;overflow=fill;fontSize=14;fontFamily=Helvetica;html=1;rounded=0;shadow=0;comic=0;labelBackgroundColor=none;strokeWidth=1;" parent="1" vertex="1">
          <mxGeometry x="720" y="520" width="173" height="67" as="geometry" />
        </mxCell>
        <mxCell id="node10" value="&lt;p style=&quot;margin:0px;margin-top:4px;text-align:center;&quot;&gt;&lt;b&gt;SCPostVenta&lt;/b&gt;&lt;/p&gt;&lt;hr size=&quot;1&quot;/&gt;&lt;p style=&quot;margin:0 0 0 4px;line-height:1.6;&quot;&gt;+ SCPostVenta(): &lt;/p&gt;" style="verticalAlign=top;align=left;overflow=fill;fontSize=14;fontFamily=Helvetica;html=1;rounded=0;shadow=0;comic=0;labelBackgroundColor=none;strokeWidth=1;" parent="1" vertex="1">
          <mxGeometry x="910" y="520" width="173" height="67" as="geometry" />
        </mxCell>
        <mxCell id="Q45VHOt7pSrsP22c0dTn-14" value="" style="endArrow=open;endSize=12;dashed=1;html=1;rounded=0;edgeStyle=orthogonalEdgeStyle;exitX=0.5;exitY=1;exitDx=0;exitDy=0;entryX=0;entryY=0.5;entryDx=0;entryDy=0;fontSize=15;strokeWidth=4;" edge="1" parent="1" source="node0" target="node6">
          <mxGeometry width="160" relative="1" as="geometry">
            <mxPoint x="1130" y="-90" as="sourcePoint" />
            <mxPoint x="1290" y="-90" as="targetPoint" />
            <Array as="points">
              <mxPoint x="1136" y="-80" />
              <mxPoint x="1290" y="-80" />
              <mxPoint x="1290" y="-117" />
            </Array>
          </mxGeometry>
        </mxCell>
        <mxCell id="Q45VHOt7pSrsP22c0dTn-17" value="" style="endArrow=open;endSize=12;dashed=1;html=1;rounded=0;edgeStyle=orthogonalEdgeStyle;exitX=0.5;exitY=1;exitDx=0;exitDy=0;fontSize=15;strokeWidth=4;" edge="1" parent="1" source="node0" target="node4">
          <mxGeometry width="160" relative="1" as="geometry">
            <mxPoint x="1100" y="-20" as="sourcePoint" />
            <mxPoint x="1260" y="-20" as="targetPoint" />
            <Array as="points">
              <mxPoint x="1137" y="-26" />
            </Array>
          </mxGeometry>
        </mxCell>
        <mxCell id="Q45VHOt7pSrsP22c0dTn-18" value="" style="endArrow=open;endSize=12;dashed=1;html=1;rounded=0;edgeStyle=orthogonalEdgeStyle;exitX=0.5;exitY=1;exitDx=0;exitDy=0;fontSize=15;strokeWidth=4;" edge="1" parent="1" source="node0">
          <mxGeometry width="160" relative="1" as="geometry">
            <mxPoint x="1137" y="-20" as="sourcePoint" />
            <mxPoint x="1351" y="60" as="targetPoint" />
            <Array as="points">
              <mxPoint x="1137" y="60" />
              <mxPoint x="1351" y="60" />
            </Array>
          </mxGeometry>
        </mxCell>
        <mxCell id="Q45VHOt7pSrsP22c0dTn-22" value="" style="endArrow=open;endFill=1;endSize=12;html=1;rounded=0;edgeStyle=orthogonalEdgeStyle;exitX=0.5;exitY=0;exitDx=0;exitDy=0;entryX=1;entryY=0.5;entryDx=0;entryDy=0;fontSize=15;strokeWidth=4;" edge="1" parent="1" source="node11" target="node9">
          <mxGeometry width="160" relative="1" as="geometry">
            <mxPoint x="470" y="-370" as="sourcePoint" />
            <mxPoint x="630" y="-370" as="targetPoint" />
            <Array as="points">
              <mxPoint x="319" y="-400" />
              <mxPoint x="1740" y="-400" />
              <mxPoint x="1740" y="64" />
            </Array>
          </mxGeometry>
        </mxCell>
        <mxCell id="Q45VHOt7pSrsP22c0dTn-23" value="" style="endArrow=open;endFill=1;endSize=12;html=1;rounded=0;edgeStyle=orthogonalEdgeStyle;exitX=0.5;exitY=0;exitDx=0;exitDy=0;entryX=1;entryY=0.5;entryDx=0;entryDy=0;fontSize=15;strokeWidth=4;" edge="1" parent="1" source="node12" target="node4">
          <mxGeometry width="160" relative="1" as="geometry">
            <mxPoint x="600" y="-290" as="sourcePoint" />
            <mxPoint x="760" y="-290" as="targetPoint" />
            <Array as="points">
              <mxPoint x="498" y="-360" />
              <mxPoint x="1700" y="-360" />
              <mxPoint x="1700" y="-26" />
            </Array>
          </mxGeometry>
        </mxCell>
        <mxCell id="Q45VHOt7pSrsP22c0dTn-24" value="" style="endArrow=open;endFill=1;endSize=12;html=1;rounded=0;edgeStyle=orthogonalEdgeStyle;exitX=0.5;exitY=0;exitDx=0;exitDy=0;entryX=1;entryY=0.5;entryDx=0;entryDy=0;fontSize=15;strokeWidth=4;" edge="1" parent="1" source="node5" target="node6">
          <mxGeometry width="160" relative="1" as="geometry">
            <mxPoint x="720" y="-300" as="sourcePoint" />
            <mxPoint x="920" y="-270" as="targetPoint" />
            <Array as="points">
              <mxPoint x="684" y="-320" />
              <mxPoint x="1650" y="-320" />
              <mxPoint x="1650" y="-116" />
            </Array>
          </mxGeometry>
        </mxCell>
        <mxCell id="Q45VHOt7pSrsP22c0dTn-25" value="" style="endArrow=open;endFill=1;endSize=12;html=1;rounded=0;entryX=0.5;entryY=0;entryDx=0;entryDy=0;edgeStyle=orthogonalEdgeStyle;exitX=0.5;exitY=0;exitDx=0;exitDy=0;strokeWidth=4;" edge="1" parent="1" source="node6" target="node8">
          <mxGeometry width="160" relative="1" as="geometry">
            <mxPoint x="690" y="180" as="sourcePoint" />
            <mxPoint x="850" y="180" as="targetPoint" />
            <Array as="points">
              <mxPoint x="1443" y="-280" />
              <mxPoint x="880" y="-280" />
              <mxPoint x="880" y="170" />
              <mxPoint x="213" y="170" />
            </Array>
          </mxGeometry>
        </mxCell>
        <mxCell id="Q45VHOt7pSrsP22c0dTn-26" value="" style="endArrow=open;endFill=1;endSize=12;html=1;rounded=0;entryX=0.5;entryY=0;entryDx=0;entryDy=0;edgeStyle=orthogonalEdgeStyle;exitX=0.5;exitY=0;exitDx=0;exitDy=0;strokeWidth=4;" edge="1" parent="1" source="node6" target="node3">
          <mxGeometry width="160" relative="1" as="geometry">
            <mxPoint x="620" y="220" as="sourcePoint" />
            <mxPoint x="780" y="220" as="targetPoint" />
            <Array as="points">
              <mxPoint x="1443" y="-280" />
              <mxPoint x="880" y="-280" />
              <mxPoint x="880" y="220" />
              <mxPoint x="454" y="220" />
            </Array>
          </mxGeometry>
        </mxCell>
        <mxCell id="Q45VHOt7pSrsP22c0dTn-29" value="" style="endArrow=open;endFill=1;endSize=12;html=1;rounded=0;edgeStyle=orthogonalEdgeStyle;exitX=1;exitY=0.75;exitDx=0;exitDy=0;strokeWidth=4;" edge="1" parent="1" source="node4" target="node2">
          <mxGeometry width="160" relative="1" as="geometry">
            <mxPoint x="1550" y="-10" as="sourcePoint" />
            <mxPoint x="1650" y="230" as="targetPoint" />
          </mxGeometry>
        </mxCell>
        <mxCell id="Q45VHOt7pSrsP22c0dTn-31" value="" style="endArrow=open;endFill=1;endSize=12;html=1;rounded=0;edgeStyle=orthogonalEdgeStyle;exitX=1;exitY=0.75;exitDx=0;exitDy=0;entryX=0.5;entryY=0;entryDx=0;entryDy=0;strokeWidth=4;" edge="1" parent="1" source="node4" target="node1">
          <mxGeometry width="160" relative="1" as="geometry">
            <mxPoint x="1556" as="sourcePoint" />
            <mxPoint x="1596" y="410" as="targetPoint" />
            <Array as="points">
              <mxPoint x="1817" y="-10" />
            </Array>
          </mxGeometry>
        </mxCell>
        <mxCell id="Q45VHOt7pSrsP22c0dTn-33" value="" style="endArrow=open;endFill=1;endSize=12;html=1;rounded=0;edgeStyle=orthogonalEdgeStyle;entryX=0.5;entryY=0;entryDx=0;entryDy=0;exitX=0.5;exitY=1;exitDx=0;exitDy=0;strokeWidth=4;" edge="1" parent="1" source="node9" target="node7">
          <mxGeometry width="160" relative="1" as="geometry">
            <mxPoint x="1120" y="210" as="sourcePoint" />
            <mxPoint x="1280" y="210" as="targetPoint" />
            <Array as="points">
              <mxPoint x="1443" y="260" />
              <mxPoint x="796" y="260" />
            </Array>
          </mxGeometry>
        </mxCell>
        <mxCell id="Q45VHOt7pSrsP22c0dTn-34" value="" style="endArrow=open;endFill=1;endSize=12;html=1;rounded=0;edgeStyle=orthogonalEdgeStyle;entryX=0.5;entryY=0;entryDx=0;entryDy=0;exitX=0.5;exitY=1;exitDx=0;exitDy=0;strokeWidth=4;" edge="1" parent="1" source="node9" target="node10">
          <mxGeometry width="160" relative="1" as="geometry">
            <mxPoint x="1450" y="100" as="sourcePoint" />
            <mxPoint x="807" y="410" as="targetPoint" />
            <Array as="points">
              <mxPoint x="1443" y="260" />
              <mxPoint x="987" y="260" />
            </Array>
          </mxGeometry>
        </mxCell>
        <mxCell id="Q45VHOt7pSrsP22c0dTn-35" value="" style="endArrow=open;endFill=1;endSize=12;html=1;rounded=0;edgeStyle=orthogonalEdgeStyle;entryX=0.5;entryY=0;entryDx=0;entryDy=0;exitX=0.5;exitY=1;exitDx=0;exitDy=0;strokeWidth=4;" edge="1" parent="1" source="node9" target="node13">
          <mxGeometry width="160" relative="1" as="geometry">
            <mxPoint x="1460" y="110" as="sourcePoint" />
            <mxPoint x="997" y="410" as="targetPoint" />
            <Array as="points">
              <mxPoint x="1443" y="260" />
              <mxPoint x="1204" y="260" />
            </Array>
          </mxGeometry>
        </mxCell>
      </root>
    </mxGraphModel>
  </diagram>
</mxfile>
